<svg width="19" height="18" viewBox="0 0 19 18" fill="none" xmlns="http://www.w3.org/2000/svg">
<path d="M7.72415 9.98849C7.67091 9.98849 6.49973 9.98849 5.96738 9.98849C5.68345 9.98849 5.59473 9.88182 5.59473 9.61516C5.59473 8.90405 5.59473 8.17516 5.59473 7.46404C5.59473 7.1796 5.7012 7.09071 5.96738 7.09071H7.72415C7.72415 7.03738 7.72415 6.00626 7.72415 5.52626C7.72415 4.81515 7.84836 4.13959 8.20327 3.51737C8.57591 2.87737 9.10827 2.4507 9.78259 2.20181C10.2262 2.04181 10.6698 1.9707 11.149 1.9707H12.888C13.1364 1.9707 13.2429 2.07737 13.2429 2.32626V4.35293C13.2429 4.60182 13.1364 4.70848 12.888 4.70848C12.4089 4.70848 11.9298 4.70848 11.4506 4.72626C10.9715 4.72626 10.7231 4.95737 10.7231 5.45515C10.7053 5.98849 10.7231 6.50404 10.7231 7.05515H12.7815C13.0654 7.05515 13.1719 7.16182 13.1719 7.44627V9.59738C13.1719 9.88182 13.0832 9.97071 12.7815 9.97071C12.1427 9.97071 10.7763 9.97071 10.7231 9.97071V15.7663C10.7231 16.0685 10.6344 16.1752 10.3149 16.1752C9.56964 16.1752 8.84209 16.1752 8.0968 16.1752C7.83062 16.1752 7.72415 16.0685 7.72415 15.8018C7.72415 13.9352 7.72415 10.0418 7.72415 9.98849Z" fill="#919191"/>
</svg>
