<svg width="15" height="15" viewBox="0 0 15 15" fill="none" xmlns="http://www.w3.org/2000/svg">
<g clip-path="url(#clip0_1_531)">
<path d="M11.4804 2.83887C11.2904 2.83887 11.1357 2.99378 11.1357 3.18415C11.1357 3.37451 11.2904 3.52942 11.4804 3.52942C11.6704 3.52942 11.825 3.37453 11.825 3.18415C11.825 2.99376 11.6704 2.83887 11.4804 2.83887Z" fill="#919191"/>
<path d="M7.35373 4.25781C5.66899 4.25781 4.29834 5.63098 4.29834 7.31882C4.29834 9.00665 5.66899 10.3798 7.35373 10.3798C9.0385 10.3798 10.4091 9.00668 10.4091 7.31884C10.4091 5.63101 9.0385 4.25781 7.35373 4.25781Z" fill="#919191"/>
<path d="M10.5599 0.20752H4.14703C2.00116 0.20752 0.255371 1.95652 0.255371 4.10636V10.5309C0.255371 12.6808 2.00116 14.4298 4.14703 14.4298H10.5599C12.7058 14.4298 14.4515 12.6808 14.4515 10.5309V4.10636C14.4515 1.95652 12.7058 0.20752 10.5599 0.20752ZM7.35345 11.2195C5.20642 11.2195 3.45974 9.46961 3.45974 7.31864C3.45974 5.16767 5.20644 3.4178 7.35345 3.4178C9.50045 3.4178 11.2472 5.16769 11.2472 7.31864C11.2472 9.46959 9.50045 11.2195 7.35345 11.2195ZM11.4801 4.36964C10.8278 4.36964 10.2971 3.83797 10.2971 3.18447C10.2971 2.53097 10.8278 1.99927 11.4801 1.99927C12.1324 1.99927 12.6631 2.53094 12.6631 3.18444C12.6631 3.83794 12.1324 4.36964 11.4801 4.36964Z" fill="#919191"/>
</g>
<defs>
<clipPath id="clip0_1_531">
<rect width="14.1961" height="14.2222" fill="white" transform="translate(0.255371 0.20752)"/>
</clipPath>
</defs>
</svg>
