<svg width="18" height="16" viewBox="0 0 18 16" fill="none" xmlns="http://www.w3.org/2000/svg">
<path d="M17.8995 2.57237C17.2396 2.85791 16.5364 3.04717 15.8033 3.13907C16.5575 2.6949 17.1331 1.99691 17.4037 1.15561C16.7006 1.56915 15.9242 1.86125 15.0969 2.02426C14.4292 1.323 13.4776 0.888672 12.4395 0.888672C10.4254 0.888672 8.80397 2.50126 8.80397 4.47815C8.80397 4.76259 8.82837 5.0361 8.88826 5.29647C5.86381 5.15097 3.18761 3.72109 1.38981 1.5429C1.07594 2.08006 0.891831 2.6949 0.891831 3.35678C0.891831 4.59958 1.54064 5.70126 2.50775 6.33907C1.92327 6.32813 1.34988 6.16075 0.864104 5.89709C0.864104 5.90803 0.864104 5.92225 0.864104 5.93647C0.864104 7.68034 2.12512 9.12882 3.77875 9.4625C3.48263 9.54236 3.15989 9.58065 2.82495 9.58065C2.59204 9.58065 2.35692 9.56752 2.13621 9.51938C2.60757 10.9405 3.94511 11.9853 5.53552 12.0192C4.2978 12.9743 2.72624 13.5497 1.02492 13.5497C0.726579 13.5497 0.440438 13.5366 0.154297 13.5005C1.76578 14.5256 3.67561 15.1109 5.73516 15.1109C12.4295 15.1109 16.0895 9.64082 16.0895 4.89934C16.0895 4.74071 16.0839 4.58755 16.0762 4.43548C16.7982 3.93004 17.4048 3.29879 17.8995 2.57237Z" fill="#919191"/>
</svg>
