<svg width="20" height="19" viewBox="0 0 20 19" fill="none" xmlns="http://www.w3.org/2000/svg">
<g clip-path="url(#clip0_1_524)">
<path d="M19.374 13.8014C19.3514 13.7527 19.3304 13.7123 19.3109 13.6799C18.9876 13.0966 18.3698 12.3807 17.4579 11.5318L17.4387 11.5124L17.429 11.5029L17.4193 11.4931H17.4095C16.9956 11.0979 16.7336 10.8321 16.6238 10.696C16.423 10.4368 16.378 10.1745 16.4878 9.90867C16.5653 9.70782 16.8566 9.28367 17.3609 8.63563C17.6261 8.29219 17.8362 8.01694 17.9914 7.80956C19.1103 6.31924 19.5954 5.36691 19.4466 4.95218L19.3888 4.85527C19.35 4.79692 19.2497 4.74354 19.0882 4.69487C18.9264 4.64629 18.7195 4.63826 18.4672 4.67063L15.6733 4.68996C15.6281 4.6739 15.5634 4.67539 15.4792 4.69487C15.3951 4.71434 15.3531 4.72411 15.3531 4.72411L15.3045 4.74845L15.2659 4.77769C15.2335 4.79702 15.1979 4.83103 15.1591 4.87964C15.1205 4.92808 15.0881 4.98493 15.0623 5.04971C14.7581 5.83371 14.4123 6.56263 14.0242 7.23644C13.7849 7.63823 13.5651 7.98643 13.3644 8.28126C13.1639 8.57599 12.9958 8.79314 12.8601 8.93233C12.7241 9.07166 12.6015 9.18328 12.4913 9.2676C12.3813 9.35196 12.2974 9.3876 12.2392 9.37456C12.181 9.36152 12.1261 9.34859 12.0741 9.33565C11.9837 9.27731 11.9109 9.19796 11.856 9.09754C11.8009 8.99711 11.7638 8.87072 11.7444 8.71845C11.7251 8.56609 11.7137 8.43503 11.7104 8.32484C11.7074 8.21478 11.7088 8.05911 11.7153 7.85827C11.7221 7.65733 11.7251 7.52137 11.7251 7.45008C11.7251 7.20383 11.7299 6.93657 11.7395 6.64825C11.7493 6.35992 11.7572 6.13147 11.7638 5.96317C11.7704 5.7947 11.7735 5.61646 11.7735 5.42855C11.7735 5.24065 11.762 5.09328 11.7395 4.98633C11.7172 4.8795 11.683 4.77582 11.6379 4.67529C11.5925 4.57487 11.5261 4.49719 11.439 4.44204C11.3517 4.38696 11.2432 4.34326 11.114 4.31078C10.7712 4.23306 10.3347 4.19102 9.80427 4.18449C8.60139 4.17155 7.82848 4.24937 7.4857 4.41784C7.34989 4.48902 7.22699 4.58627 7.1171 4.7093C7.00066 4.8519 6.98441 4.92972 7.06848 4.94252C7.45658 5.00076 7.73133 5.14009 7.89304 5.36037L7.95131 5.4771C7.99664 5.56131 8.0419 5.71041 8.08719 5.92419C8.13242 6.13797 8.1616 6.37445 8.17445 6.63351C8.20673 7.10657 8.20673 7.51153 8.17445 7.8484C8.14207 8.1854 8.11148 8.44776 8.0823 8.63567C8.05311 8.82357 8.00948 8.97584 7.95131 9.09243C7.89304 9.20905 7.85427 9.28034 7.83483 9.30621C7.81543 9.33208 7.79926 9.34838 7.78641 9.35478C7.70235 9.38705 7.61492 9.4035 7.52444 9.4035C7.43382 9.4035 7.32393 9.35809 7.19461 9.26733C7.06532 9.17658 6.93114 9.05192 6.79206 8.89315C6.65299 8.73435 6.49614 8.51244 6.32146 8.22738C6.14691 7.94232 5.9658 7.60541 5.77824 7.21666L5.62306 6.93474C5.52605 6.75336 5.39353 6.48927 5.22537 6.1427C5.05711 5.79599 4.90839 5.46062 4.7791 5.13665C4.72742 5.00059 4.64978 4.897 4.54631 4.82572L4.49776 4.79648C4.46548 4.77061 4.41366 4.74314 4.34258 4.71386C4.27139 4.68462 4.19711 4.66365 4.11944 4.65075L1.46133 4.67008C1.1897 4.67008 1.0054 4.73173 0.908357 4.85486L0.86952 4.9131C0.850118 4.94554 0.840332 4.99736 0.840332 5.06867C0.840332 5.13995 0.859734 5.22744 0.898571 5.33103C1.28661 6.24469 1.70859 7.12584 2.16451 7.97462C2.62044 8.8234 3.01663 9.50712 3.35285 10.0252C3.68913 10.5436 4.03191 11.0328 4.38118 11.4927C4.73044 11.9528 4.96163 12.2476 5.07475 12.3772C5.188 12.5069 5.27695 12.6039 5.34162 12.6687L5.58419 12.9019C5.7394 13.0575 5.96733 13.2437 6.26808 13.4608C6.56889 13.6779 6.90191 13.8917 7.26732 14.1024C7.63279 14.3128 8.05797 14.4845 8.54308 14.6173C9.02813 14.7503 9.50022 14.8036 9.95944 14.7779H11.0751C11.3014 14.7583 11.4728 14.687 11.5893 14.564L11.6279 14.5153C11.6539 14.4766 11.6782 14.4165 11.7006 14.3357C11.7233 14.2547 11.7346 14.1655 11.7346 14.0684C11.7279 13.7899 11.7491 13.5388 11.7975 13.3153C11.8458 13.0918 11.9009 12.9234 11.9626 12.8099C12.0242 12.6966 12.0937 12.6009 12.1711 12.5234C12.2486 12.4456 12.3039 12.3986 12.3363 12.3824C12.3685 12.3661 12.3942 12.355 12.4136 12.3484C12.5688 12.2965 12.7515 12.3467 12.9619 12.4991C13.1721 12.6514 13.3693 12.8394 13.5537 13.0628C13.7381 13.2865 13.9595 13.5374 14.2182 13.816C14.477 14.0946 14.7033 14.3018 14.8973 14.438L15.0912 14.5547C15.2207 14.6325 15.3889 14.7038 15.5959 14.7685C15.8025 14.8333 15.9835 14.8495 16.139 14.8171L18.6224 14.7783C18.868 14.7783 19.0592 14.7376 19.1947 14.6567C19.3306 14.5757 19.4113 14.4865 19.4373 14.3895C19.4633 14.2923 19.4647 14.1821 19.4422 14.0589C19.4192 13.9359 19.3966 13.85 19.374 13.8014Z" fill="#919191"/>
</g>
<defs>
<clipPath id="clip0_1_524">
<rect width="18.6324" height="18.6667" fill="white" transform="translate(0.840332 0.174805)"/>
</clipPath>
</defs>
</svg>
