<?xml version="1.0" standalone="no"?>
<!DOCTYPE svg PUBLIC "-//W3C//DTD SVG 20010904//EN"
 "http://www.w3.org/TR/2001/REC-SVG-20010904/DTD/svg10.dtd">
<svg version="1.0" xmlns="http://www.w3.org/2000/svg"
 width="264.000000pt" height="264.000000pt" viewBox="0 0 264.000000 264.000000"
 preserveAspectRatio="xMidYMid meet">
<metadata>
Created by potrace 1.14, written by Peter Selinger 2001-2017
</metadata>
<g transform="translate(0.000000,264.000000) scale(0.100000,-0.100000)"
fill="#000000" stroke="none">
<path d="M1204 2549 c1 -50 -1 -94 -4 -98 -3 -5 -95 -8 -204 -7 -182 1 -200
-1 -204 -16 -3 -14 -15 -18 -57 -18 -32 0 -55 -5 -57 -12 -3 -8 -79 -12 -284
-13 -266 -1 -281 -2 -320 -22 -78 -41 -75 -24 -72 -471 3 -454 -4 -419 98
-467 30 -14 62 -29 70 -34 8 -5 24 -13 35 -17 28 -10 195 -11 189 -2 -3 5 -10
5 -16 2 -6 -4 -8 -2 -4 4 3 6 1 14 -5 18 -8 5 -9 3 -4 -6 5 -9 4 -11 -3 -6
-25 15 -10 24 36 22 26 -1 57 1 70 6 15 5 21 4 17 -2 -3 -6 -13 -10 -21 -10
-8 0 -14 -5 -14 -11 0 -6 -9 -8 -21 -4 -13 4 -19 3 -16 -3 4 -5 -15 -28 -42
-50 -28 -24 -60 -64 -75 -93 l-25 -51 -1 -426 c0 -234 -3 -428 -6 -431 -3 -3
-11 -6 -17 -6 -8 0 -13 -35 -15 -113 -2 -104 -1 -113 15 -112 58 6 63 3 63
-50 l0 -50 179 0 180 0 3 52 3 51 108 0 c60 -1 111 -3 113 -6 3 -3 6 -26 6
-51 l1 -46 179 0 178 0 0 50 0 50 367 -2 367 -3 15 -48 15 -47 182 0 183 0
-14 41 c-8 23 -15 45 -15 50 0 5 34 9 75 9 l75 0 1 38 c1 20 2 55 2 77 0 22 6
44 14 48 18 11 17 28 -1 21 -10 -4 -15 1 -15 13 -1 36 -4 53 -11 53 -3 0 -6 9
-7 20 -1 11 2 20 8 20 5 0 9 5 9 11 0 5 -3 8 -8 6 -4 -3 -7 10 -8 29 0 19 3
34 8 34 4 0 8 5 8 11 0 5 -3 8 -8 6 -4 -3 -7 10 -8 29 0 19 3 34 8 34 4 0 8 5
8 11 0 5 -3 8 -8 6 -4 -3 -7 10 -8 29 0 19 3 34 8 34 4 0 8 5 8 11 0 5 -3 8
-8 6 -4 -3 -7 10 -8 29 0 19 3 34 8 34 4 0 8 5 8 11 0 5 -3 8 -8 6 -4 -3 -7
10 -8 29 0 19 3 34 8 34 4 0 8 5 8 11 0 5 -3 8 -8 6 -4 -3 -7 10 -8 29 0 19 3
35 8 35 42 7 44 12 43 167 0 83 2 149 6 147 3 -2 6 2 6 10 0 8 -5 11 -10 8 -6
-4 -8 0 -4 10 3 10 2 17 -4 17 -6 0 -7 5 -4 10 3 6 1 10 -5 10 -6 0 -9 4 -6 9
3 5 -5 25 -18 44 -13 19 -21 38 -18 42 4 4 0 5 -8 3 -8 -1 -14 4 -15 12 0 8
-7 15 -15 15 -8 0 -15 7 -15 16 0 8 -8 24 -18 34 -15 14 -21 15 -30 5 -9 -10
-9 -11 2 -5 10 6 12 4 6 -5 -6 -9 -4 -11 5 -5 9 5 11 4 6 -3 -5 -8 -2 -10 8
-6 9 3 16 2 16 -3 0 -5 -8 -9 -18 -10 -12 -1 -28 13 -43 37 -13 21 -27 36 -32
33 -4 -2 -6 -1 -5 4 4 13 -73 85 -135 125 -32 21 -105 61 -162 89 -58 28 -106
56 -106 63 -1 6 -1 23 -1 39 1 28 -11 36 -24 15 -4 -6 -3 -8 2 -5 6 3 10 -7 9
-23 0 -22 -4 -27 -19 -24 -24 4 -31 12 -22 21 4 4 11 1 16 -7 6 -9 10 -10 10
-3 0 18 -19 26 -33 14 -8 -6 -18 -6 -27 -1 -10 7 -11 10 -3 10 15 0 13 21 -2
32 -6 5 -5 8 3 8 8 0 10 5 5 13 -11 17 -11 68 -1 90 6 11 5 17 -4 17 -9 0 -9
3 2 9 8 6 18 7 24 4 5 -4 7 1 3 10 -3 9 -1 19 5 23 6 4 8 3 5 -2 -3 -6 -2 -16
3 -24 5 -9 4 -20 -3 -28 -9 -11 -7 -18 10 -32 12 -10 19 -21 15 -24 -3 -4 2
-4 12 0 14 5 15 9 4 15 -10 7 -10 9 2 9 13 0 13 1 0 10 -8 5 -11 10 -6 10 5 0
3 6 -3 13 -6 8 -8 17 -4 21 10 10 -47 65 -67 63 -10 -1 -16 -5 -13 -10 3 -4
11 -6 17 -4 7 3 13 -1 13 -9 0 -8 -2 -14 -4 -14 -2 0 -34 31 -71 68 -37 37
-82 74 -99 81 -18 7 -33 19 -34 25 0 6 -1 51 -2 100 -2 75 1 90 14 93 14 4 16
23 15 146 l-1 142 -236 3 -235 2 0 -91z m-524 -422 c0 -10 14 -13 55 -11 47 2
55 0 55 -15 0 -16 13 -18 158 -16 86 1 160 0 165 -2 4 -3 -4 -19 -17 -36 -39
-50 -47 -84 -48 -188 l0 -97 -77 -27 c-42 -15 -98 -38 -126 -52 -49 -24 -54
-24 -277 -21 -160 1 -224 5 -218 13 5 6 5 17 0 25 -14 22 -12 30 6 30 8 0 12
5 9 10 -4 6 -9 8 -13 6 -4 -2 -8 85 -9 195 l-2 199 170 0 c135 0 169 -3 169
-13z m1170 -157 c0 -5 -4 -10 -10 -10 -5 0 -10 5 -10 10 0 6 5 10 10 10 6 0
10 -4 10 -10z m48 -15 c-3 -3 -9 2 -12 12 -6 14 -5 15 5 6 7 -7 10 -15 7 -18z
m8 -27 c4 -7 3 -8 -4 -4 -7 4 -12 3 -12 -3 0 -5 6 -12 13 -14 9 -4 9 -6 0 -6
-15 -1 -26 16 -18 29 8 13 12 13 21 -2z m-1694 -533 c5 -6 8 -6 8 3 0 6 9 12
21 12 14 0 19 -5 16 -13 -3 -8 1 -14 8 -14 7 0 11 6 9 12 -8 19 62 14 73 -5 9
-14 3 -16 -58 -15 -38 0 -74 6 -80 12 -6 6 -17 9 -24 7 -7 -3 -16 -1 -19 5 -9
13 37 10 46 -4z m2241 -30 c4 3 5 2 2 -2 -3 -4 7 -19 22 -35 15 -15 23 -28 17
-28 -5 0 -3 -4 4 -8 7 -5 14 -17 16 -28 3 -10 7 -27 11 -36 8 -19 -9 -25 -20
-8 -5 8 -11 7 -21 -1 -10 -8 -14 -8 -14 0 0 6 5 11 10 11 6 0 10 5 10 11 0 5
-4 7 -10 4 -9 -5 -12 1 -9 21 0 4 -3 10 -8 13 -5 3 -17 23 -26 43 -10 20 -22
40 -27 43 -6 4 -8 11 -4 16 4 6 13 4 23 -5 10 -9 21 -14 24 -11z"/>
<path d="M370 2020 c-8 -5 -15 -20 -16 -34 0 -14 3 -23 8 -20 4 3 8 0 8 -5 0
-6 -4 -11 -8 -11 -4 0 -7 -33 -7 -74 0 -41 3 -72 7 -70 5 3 8 1 8 -5 0 -5 -6
-11 -12 -13 -9 -3 -8 -11 5 -31 16 -25 16 -27 -1 -36 -9 -6 -12 -11 -5 -11 6
0 10 -8 8 -18 -3 -15 3 -18 33 -17 34 1 37 3 35 28 -1 18 2 25 9 21 7 -5 8 -2
2 7 -12 21 -12 119 0 119 7 0 8 3 1 8 -5 4 -10 40 -10 80 0 41 -4 73 -10 73
-5 1 -17 5 -26 9 -8 5 -21 5 -29 0z m52 -15 c3 3 5 -2 5 -10 0 -12 -3 -12 -15
-2 -13 11 -14 9 -2 -13 15 -26 21 -162 8 -154 -10 6 -10 -10 -1 -20 12 -11 11
-56 -1 -56 -6 0 -4 -5 4 -10 11 -7 11 -10 2 -10 -8 0 -10 -5 -5 -12 15 -25 10
-35 -15 -33 -25 1 -40 29 -21 40 5 4 2 17 -7 31 -15 21 -15 24 -1 18 17 -6 18
11 2 36 -14 23 -13 129 2 123 13 -5 12 15 -2 37 -20 31 -4 56 26 40 9 -5 18
-7 21 -5z"/>
<path d="M377 1997 c-4 -10 1 -22 14 -31 15 -10 17 -15 7 -19 -10 -4 -9 -6 2
-6 10 -1 9 -5 -6 -15 -28 -20 -27 -101 1 -122 13 -10 15 -14 4 -14 -11 0 -11
-2 -1 -9 11 -6 10 -10 -3 -15 -13 -5 -15 -9 -6 -20 6 -7 8 -16 4 -20 -4 -3 -8
-13 -9 -20 -2 -12 4 -13 35 -7 2 1 -1 7 -6 14 -6 6 -9 19 -7 27 1 8 5 25 8 38
3 15 0 25 -10 29 -10 4 -12 9 -4 18 5 6 7 15 3 18 -3 4 -2 7 3 7 15 0 11 110
-5 119 -7 5 -12 11 -11 15 4 17 -7 29 -13 13z m23 -87 c-13 -9 -13 -10 0 -10
13 0 13 -1 0 -10 -13 -9 -13 -10 0 -10 10 0 11 -3 4 -8 -6 -4 -10 -15 -8 -24
1 -10 -1 -20 -5 -22 -4 -3 -6 16 -5 42 2 56 1 52 17 52 8 0 7 -4 -3 -10z"/>
<path d="M225 1390 c-3 -6 1 -7 9 -4 18 7 21 14 7 14 -6 0 -13 -4 -16 -10z"/>
<path d="M285 1391 c3 -3 17 -6 31 -7 13 0 22 2 19 5 -3 3 -17 6 -31 7 -13 0
-22 -2 -19 -5z"/>
<path d="M2428 1359 c12 -14 19 -28 16 -32 -4 -4 1 -9 10 -13 9 -3 13 -10 10
-15 -3 -5 2 -12 11 -15 9 -4 13 -10 8 -13 -5 -3 2 -17 16 -31 22 -23 23 -24
12 -2 -6 12 -8 22 -4 22 4 1 -2 9 -15 19 -12 11 -17 21 -12 23 6 2 -9 21 -32
43 -24 22 -33 28 -20 14z"/>
<path d="M1852 1936 c-7 -47 -8 -97 -2 -101 4 -3 6 -18 5 -35 -2 -25 0 -28 11
-19 11 9 18 8 32 -2 15 -13 16 -12 4 3 -11 14 -10 18 5 30 22 15 29 62 9 55
-20 -8 -60 51 -47 67 8 9 7 13 -2 13 -8 0 -14 -5 -15 -11z m23 -56 c-7 -11 22
-33 34 -26 11 7 9 -13 -2 -31 -5 -7 -16 -17 -27 -23 -15 -8 -18 -6 -15 8 1 9
0 22 -4 27 -3 6 -6 24 -6 42 -1 26 1 30 12 22 7 -6 11 -15 8 -19z"/>
<path d="M1864 1856 c2 -11 8 -22 16 -24 10 -4 9 -6 -1 -13 -8 -5 -9 -9 -3 -9
6 0 18 8 25 18 7 9 10 14 5 10 -5 -4 -17 3 -27 15 -16 20 -17 20 -15 3z"/>
<path d="M2280 1536 c0 -3 21 -21 48 -41 26 -20 46 -39 44 -41 -2 -3 -2 -10 0
-16 3 -8 7 -6 11 4 4 12 -10 28 -49 58 -30 22 -54 38 -54 36z"/>
<path d="M380 1396 c0 -2 6 -9 13 -15 10 -8 14 -7 14 4 0 8 -6 15 -14 15 -7 0
-13 -2 -13 -4z"/>
<path d="M2555 1106 c0 -35 3 -62 7 -60 5 3 8 1 8 -5 0 -5 -5 -11 -12 -13 -7
-3 -5 -7 6 -11 11 -5 15 -3 10 5 -4 7 -3 8 4 4 8 -5 10 -1 6 11 -6 15 -4 15
10 -2 l16 -20 -6 20 c-4 14 -3 16 4 7 8 -12 9 -30 3 -89 0 -7 -5 -13 -11 -13
-5 0 -7 8 -4 18 5 14 4 15 -5 2 -6 -9 -11 -10 -11 -3 0 6 7 18 15 27 8 8 15
16 15 19 0 2 -7 4 -15 4 -14 0 -19 -10 -16 -30 1 -5 -3 -6 -8 -2 -6 3 -8 12
-4 20 3 8 1 15 -4 15 -5 0 -9 -11 -9 -24 0 -14 4 -22 8 -20 4 3 8 0 8 -5 0 -6
-6 -11 -12 -11 -9 0 -8 -4 2 -10 13 -9 13 -10 0 -10 -13 0 -13 -1 0 -10 13 -8
13 -10 1 -10 -11 0 -10 -4 4 -13 10 -8 15 -19 11 -25 -15 -24 2 -11 19 14 9
15 13 24 8 21 -5 -4 -10 0 -10 8 0 8 4 15 9 15 4 0 8 -6 8 -12 0 -9 4 -8 10 2
5 8 10 10 10 5 0 -6 -5 -16 -12 -23 -9 -9 -9 -12 1 -12 7 0 9 -5 5 -11 -4 -8
-9 -7 -15 2 -5 8 -9 9 -9 4 0 -6 6 -17 13 -25 9 -11 8 -11 -8 0 -18 14 -19 13
-7 -1 11 -15 9 -16 -18 -14 -16 1 -30 -2 -30 -7 0 -6 8 -7 17 -4 11 5 9 -1 -7
-17 -24 -22 -45 -28 -23 -6 13 13 6 42 -7 34 -5 -3 -11 -1 -15 4 -3 6 3 8 14
6 11 -2 25 3 32 11 19 23 1 29 -22 8 -12 -10 -24 -18 -27 -17 -10 4 -9 -30 2
-44 5 -8 5 -18 0 -25 -11 -16 -11 -39 0 -56 4 -7 4 -18 -1 -25 -10 -15 -10
-38 1 -55 4 -7 4 -18 -1 -25 -10 -15 -10 -38 1 -55 4 -7 4 -18 -1 -25 -10 -15
-10 -38 1 -55 4 -7 4 -18 -1 -25 -10 -15 -10 -38 1 -55 4 -7 3 -19 -3 -26 -9
-11 -8 -18 4 -29 17 -18 20 -31 4 -21 -8 5 -8 1 0 -13 6 -11 7 -24 3 -28 -4
-5 -2 -5 5 -1 18 10 27 -13 12 -31 -7 -8 -14 -38 -15 -65 -1 -30 2 -44 7 -36
7 10 9 10 9 -2 0 -12 2 -12 9 -1 5 8 11 9 15 3 3 -6 14 -10 24 -9 18 1 22 22
9 43 -3 6 -4 14 0 18 10 10 10 55 -1 53 -5 -1 -10 110 -10 281 -1 263 0 283
16 279 10 -3 17 -2 16 2 -2 17 3 25 10 14 4 -7 8 57 7 141 0 91 -4 152 -9 148
-5 -3 -7 2 -4 10 5 12 0 14 -23 12 -16 -2 -29 1 -29 6 0 6 -3 10 -8 10 -4 0
-7 -29 -7 -64z m35 35 c0 8 7 6 19 -7 11 -12 14 -21 8 -26 -16 -10 -18 -40 -3
-35 7 3 13 -1 13 -8 0 -9 -11 -12 -31 -11 -29 2 -31 5 -31 49 -1 37 2 44 12
35 10 -8 13 -7 13 3z m-4 -227 c0 -13 -2 -22 -5 -19 -3 3 -6 17 -7 31 0 13 2
22 5 19 3 -3 6 -17 7 -31z m-56 -94 c0 -5 -2 -10 -4 -10 -3 0 -8 5 -11 10 -3
6 -1 10 4 10 6 0 11 -4 11 -10z m45 -276 c0 -152 3 -278 7 -281 5 -2 6 -8 3
-13 -3 -5 -1 -12 5 -15 8 -5 8 -11 0 -20 -8 -10 -8 -15 0 -20 8 -5 8 -11 -1
-21 -6 -7 -16 -11 -23 -7 -6 4 -15 8 -21 8 -17 0 -13 74 6 91 17 16 17 17 -4
34 -17 14 -19 21 -10 32 8 9 9 19 3 28 -6 8 -10 11 -10 7 0 -5 -5 -5 -10 -2
-8 5 -7 11 1 21 9 11 8 18 -1 30 -11 12 -11 15 0 12 7 -2 15 3 17 10 3 7 1 12
-4 11 -20 -3 -25 2 -13 16 10 12 10 18 0 30 -9 10 -9 15 -1 15 6 0 11 -5 11
-11 0 -5 4 -8 10 -4 10 6 3 35 -8 33 -19 -2 -23 4 -12 17 10 12 10 18 0 31
-11 12 -11 15 0 12 7 -2 15 3 17 10 3 7 1 12 -4 11 -20 -3 -25 2 -13 16 10 12
10 18 0 30 -9 10 -9 15 -1 15 6 0 11 -5 11 -11 0 -5 4 -8 10 -4 10 6 3 35 -8
33 -19 -2 -23 4 -12 17 10 12 10 18 0 31 -11 12 -11 15 0 12 7 -2 15 3 17 10
3 7 1 11 -4 10 -4 -2 -9 2 -10 7 -2 6 1 10 5 10 5 0 16 8 26 18 10 9 18 17 19
17 1 0 2 -124 2 -276z"/>
<path d="M2574 1095 c0 -17 5 -32 12 -32 6 0 11 7 9 16 -1 9 2 22 8 29 5 6 8
12 6 13 -33 6 -35 5 -35 -26z"/>
<path d="M2547 784 c-3 -3 -3 -12 -1 -19 3 -7 0 -16 -5 -20 -6 -3 -9 -11 -5
-16 3 -5 0 -17 -8 -26 -8 -11 -8 -14 -1 -10 7 4 16 0 22 -10 5 -10 13 -14 17
-10 5 5 2 12 -6 17 -13 9 -13 10 0 10 13 0 13 1 0 10 -13 9 -13 11 0 20 13 9
13 10 0 10 -13 0 -13 1 0 10 12 8 13 11 1 19 -11 7 -11 9 0 14 8 3 9 6 3 6 -6
1 -13 -2 -17 -5z"/>
<path d="M2535 634 c-9 -15 -12 -24 -7 -20 15 9 26 -13 13 -28 -6 -7 -8 -16
-4 -19 3 -4 0 -14 -8 -24 -8 -9 -9 -14 -2 -10 7 4 16 0 22 -10 5 -10 13 -14
17 -10 5 5 2 12 -6 17 -13 9 -13 10 0 10 13 0 13 1 0 10 -13 9 -13 11 0 20 13
9 13 10 0 10 -13 0 -13 1 0 10 13 9 13 11 0 20 -13 9 -13 10 0 10 13 0 13 1 0
10 -13 9 -13 11 0 20 8 5 10 10 4 10 -7 0 -19 -12 -29 -26z"/>
<path d="M2535 474 c-9 -15 -12 -24 -7 -20 15 9 26 -13 13 -28 -6 -7 -8 -16
-4 -19 3 -4 0 -14 -8 -24 -8 -9 -9 -14 -2 -10 7 4 16 0 22 -10 5 -10 13 -14
17 -10 5 5 2 12 -6 17 -13 9 -13 10 0 10 13 0 13 1 0 10 -13 9 -13 11 0 20 13
9 13 10 0 10 -13 0 -13 1 0 10 13 9 13 11 0 20 -13 9 -13 10 0 10 13 0 13 1 0
10 -13 9 -13 11 0 20 8 5 10 10 4 10 -7 0 -19 -12 -29 -26z"/>
<path d="M2545 330 c-8 -13 3 -30 18 -30 7 0 6 4 -3 10 -13 9 -13 11 0 20 9 6
10 10 3 10 -6 0 -15 -4 -18 -10z"/>
<path d="M2554 258 c-11 -16 -13 -78 -3 -72 4 2 10 0 14 -6 4 -6 11 -8 16 -4
6 4 6 11 -1 19 -8 10 -8 15 0 20 8 5 7 11 -2 22 -7 9 -11 18 -10 20 2 3 1 7
-1 9 -3 3 -9 -1 -13 -8z m13 -5 c-4 -3 -2 -12 4 -19 7 -8 7 -14 -1 -19 -8 -5
-7 -12 2 -23 11 -15 11 -15 -3 -5 -9 8 -15 25 -13 40 3 34 2 33 11 33 3 0 3
-3 0 -7z"/>
</g>
</svg>
