<svg width="139" height="48" viewBox="0 0 139 48" fill="none" xmlns="http://www.w3.org/2000/svg">
<g clip-path="url(#clip0_1_541)">
<path fill-rule="evenodd" clip-rule="evenodd" d="M8.28623 23.293C8.32672 23.2397 8.35371 23.1863 8.3807 23.133H3.90031C2.63176 23.133 1.61963 22.133 1.61963 20.8797V10.9863H6.18099V18.6263H12.2808C13.2929 17.8797 14.413 17.2663 15.6006 16.8263V13.8397C15.6006 12.7863 15.9515 11.7863 16.5857 10.9863H25.0742C25.7085 11.7863 26.0593 12.7863 26.0593 13.8397V16.8263C30.4588 18.4797 33.7246 22.293 34.6018 26.853H35.4924V32.933H34.8447V43.053H35.0606V44.533V45.293H4.71002V43.053H5.23633V28.1863C5.23633 26.613 5.8706 25.1997 7.05817 24.1463C7.40905 23.8397 7.85439 23.533 8.28623 23.293Z" fill="#1F1B20" fill-opacity="0.501961"/>
<path fill-rule="evenodd" clip-rule="evenodd" d="M8.43425 23.5997C8.73115 22.9997 9.06853 22.413 9.45989 21.8663H3.37358C2.60435 21.8663 1.99707 21.2663 1.99707 20.5063V10.9863H4.75008V19.1463H11.7811C11.862 19.1463 11.943 19.1597 12.024 19.173C13.2115 18.253 14.5476 17.5463 15.978 17.0797V13.4797C15.978 12.533 16.3289 11.6663 16.9092 10.9863H23.6838C24.2776 11.6663 24.6284 12.533 24.6284 13.4797V17.0797C29.2708 18.573 32.6715 22.5997 33.3058 27.3863H34.0615V31.6663H33.4138V43.5863H33.6297V44.1597V45.293H5.08746V43.5863H5.61377V27.813C5.61377 26.493 6.12659 25.3197 7.13872 24.4397C7.4761 24.1463 7.97542 23.7997 8.43425 23.5997Z" fill="black" fill-opacity="0.501961"/>
<path fill-rule="evenodd" clip-rule="evenodd" d="M6.95012 22.2798C6.97711 22.2265 7.0041 22.1732 7.03109 22.1198H2.5507C1.29565 22.1198 0.27002 21.1198 0.27002 19.8665C0.27002 15.4398 0.27002 10.9998 0.27002 6.57317C0.27002 5.31984 1.29565 4.31984 2.5507 4.31984H9.32526V3.87984H10.8367V3.27984H16.3292V-0.333496H22.645V4.9865H22.2401V8.71984C23.7516 9.53317 24.7232 11.1065 24.7232 12.8398V15.8132C29.1226 17.4665 32.375 21.2798 33.2657 25.8398H34.1563V31.9198H33.5086V42.0532H33.7245V43.5198C33.7245 43.9198 33.7245 44.3198 33.7245 44.7198V46.1865H31.6867L32.1186 48.0398H27.2873L26.8555 46.1865C23.5896 46.1865 20.3373 46.1865 17.0715 46.1865V48.0398H12.3077V46.1732H9.17682V48.0398H4.42652V46.1732H3.36041V42.0532H3.88672V27.1732C3.88672 25.5998 4.52099 24.1865 5.72206 23.1332C6.07293 22.8265 6.50478 22.5198 6.95012 22.2798ZM10.9312 17.6132C11.9568 16.8665 13.0634 16.2532 14.251 15.8132V12.8398C14.251 11.7198 14.6558 10.6798 15.3441 9.85317H10.8367V9.25317H9.32526V8.8265H4.83138C4.83138 11.7465 4.83138 14.6798 4.83138 17.6132H10.9312ZM20.2563 2.0265H18.7179V2.6265H20.2563V2.0265Z" fill="#373736"/>
<path fill-rule="evenodd" clip-rule="evenodd" d="M7.625 22.9601C7.92189 22.3601 8.25927 21.7734 8.65063 21.2267H2.55082C1.79509 21.2267 1.17432 20.6267 1.17432 19.8667C1.17432 15.4401 1.17432 11.0001 1.17432 6.57339C1.17432 5.81339 1.79509 5.21339 2.55082 5.21339H10.2296V4.77339H11.741V4.17339H15.4522V4.77339H16.9636V5.21339H17.6384V4.09339H17.2335V0.560059H21.7409V4.09339H21.3361V9.29339C22.807 9.84006 23.8192 11.2534 23.8192 12.8401V16.4401C28.4615 17.9334 31.8623 21.9601 32.4965 26.7334H33.2523V31.0267H32.6045V42.9467H32.8204V43.5201C32.8204 43.9201 32.8204 44.3201 32.8204 44.7201V45.2934H30.5532L30.9851 47.1467H28.0027L27.5708 45.2934C23.7652 45.2934 19.9731 45.2934 16.1674 45.2801V47.1467H13.212V45.2801H8.27276V47.1467H5.33082V45.2801H4.2647V42.9467H4.79101V27.1734C4.79101 25.8534 5.31733 24.6801 6.31597 23.8001C6.65334 23.5067 7.16616 23.1601 7.625 22.9601ZM11.2417 18.5067C12.4158 17.6001 13.7383 16.8934 15.1553 16.4401V12.8401C15.1553 11.2534 16.1674 9.84006 17.6384 9.29339V7.93339H16.9636V8.36006H15.4522V8.96006H11.741V8.36006H10.2296V7.93339H3.92733C3.92733 11.4534 3.92733 14.9867 3.92733 18.5067H11.2417ZM21.1606 1.13339H17.8138V3.52006H21.1606V1.13339Z" fill="#301A05"/>
<path fill-rule="evenodd" clip-rule="evenodd" d="M18.2185 3.79997V9.4133C18.4614 9.35997 18.7313 9.31997 18.9877 9.31997H19.9863C20.2562 9.31997 20.5126 9.35997 20.7556 9.4133V3.79997H18.2185ZM15.5869 44.9866H13.7921V46.5733H15.5869V44.9866ZM7.69226 44.9866H5.9109V46.5733H7.69226V44.9866ZM28.0969 44.9866L28.4613 46.5733H30.2561L29.8918 44.9866H28.0969ZM32.6718 27.32H16.8285V30.4533H32.6718V27.32ZM16.8285 43.24H17.3683H32.0105V42.6266V36.72V30.7333H16.8285V43.24ZM17.0714 44.7066V43.52H16.8285H16.5451C12.8204 43.52 9.09575 43.52 5.38459 43.52H5.0877H4.84478V44.7066H5.22265H16.9499H17.0714ZM17.3683 44.7066C18.3534 44.72 19.3925 44.72 20.4317 44.7066H32.2399V43.52H17.3683V44.7066ZM10.5262 5.78663H2.55061C2.11876 5.78663 1.75439 6.1333 1.75439 6.5733V19.8666C1.75439 20.3066 2.11876 20.6533 2.55061 20.6533H10.1754V22H11.7543V19.8666C11.7543 19.44 11.4034 19.0933 10.9581 19.0933H3.34682V7.34663H10.5262V5.78663ZM12.456 23.16H9.47362H12.456ZM12.456 22.88V22.28H9.47362V22.88H12.456ZM16.5451 43.24V27.1733C16.5451 24.9733 14.7232 23.16 12.483 23.16H9.44663C7.20643 23.16 5.38459 24.9733 5.38459 27.1733V43.24H16.5451ZM19.9324 16.4133H19.0417C16.2212 16.4133 13.6301 17.3733 11.5654 18.9866C11.8488 19.1866 12.0377 19.5066 12.0377 19.8666V22H12.7394V22.8933C14.9661 23.0133 16.761 24.8133 16.8285 27.0266H31.943C31.2683 21.08 26.1266 16.4133 19.9324 16.4133ZM9.87847 22V20.9333H9.59507C9.06876 21.5866 8.60993 22.3066 8.21857 23.0533C8.52896 22.96 8.85284 22.9066 9.19022 22.8933V22H9.87847ZM12.0377 5.34663H10.8096V7.78663H12.0377V5.34663ZM14.8582 4.74663H12.3211V8.38663H14.8582V4.74663ZM16.3696 5.34663H15.1551V7.78663H16.3696V5.34663ZM17.9351 5.78663H16.6665V7.34663H17.9351V5.78663ZM19.9863 9.62663H18.9877C17.2063 9.62663 15.7354 11.0666 15.7354 12.84V16.5733C16.788 16.28 17.8946 16.12 19.0417 16.12H19.9324C21.0794 16.12 22.186 16.28 23.2387 16.5866V12.84C23.2387 11.0666 21.7677 9.62663 19.9863 9.62663ZM21.1604 1.1333H17.8136V3.51997H21.1604V1.1333Z" fill="#9A5917"/>
<path fill-rule="evenodd" clip-rule="evenodd" d="M72.3473 30.4533C72.0369 33.0666 70.9033 35.3333 68.9195 37.24C66.5983 39.4933 63.7509 40.6133 60.4985 40.6133C57.2732 40.6133 54.4122 39.5066 52.1315 37.2266C49.8509 34.96 48.7173 32.1866 48.7173 28.9733C48.7173 25.7866 49.8644 22.9866 52.1315 20.72C54.4392 18.4266 57.2732 17.3066 60.539 17.3066C63.7913 17.3066 66.6118 18.4533 68.933 20.72C70.8898 22.64 72.0369 24.9066 72.3473 27.5066C72.6442 24.92 73.7508 22.64 75.6671 20.72C77.9748 18.4266 80.8087 17.3066 84.0746 17.3066C87.3269 17.3066 90.1474 18.4533 92.4685 20.72C94.7897 23 95.9638 25.7466 95.9638 28.9733C95.9638 32.2133 94.8032 34.9733 92.455 37.24C90.1339 39.4933 87.2864 40.6133 84.0341 40.6133C80.7952 40.6133 77.9478 39.5066 75.6671 37.2266C73.7508 35.32 72.6442 33.04 72.3473 30.4533ZM115.802 31.04L121.632 17.4266H123.75L132.846 38.7866V17.7333H136.679V36.5466H140.592V40.1866H129.324L127.3 35.36H118.028L115.991 40.1866H111.902L113.791 35.7466C113.453 36.1866 113.076 36.6133 112.657 37.0133C110.228 39.36 107.03 40.1866 103.71 40.1866H96.8275V17.7333H103.71C107.03 17.7333 110.255 18.5466 112.684 20.8666C114.965 23.0533 115.977 25.8266 115.977 28.9333C115.977 29.6533 115.923 30.36 115.802 31.04ZM100.66 21.3733V36.5466H103.71C105.977 36.5466 108.244 36.0266 109.891 34.4133C111.429 32.9066 112.077 31.0533 112.077 28.9333C112.077 26.8133 111.443 24.9866 109.891 23.48C108.231 21.8666 105.977 21.3733 103.71 21.3733H100.66ZM125.775 31.7333L122.671 24.2533L119.54 31.7333H125.775ZM44.6282 21.32H41.7808V17.7333H48.4879V40.1866H44.6282V21.32ZM89.756 23.2666C88.1906 21.68 86.3148 20.9733 84.0746 20.9733C81.8344 20.9733 79.945 21.6666 78.3796 23.2666C76.8277 24.8533 76.1529 26.7733 76.1529 28.9733C76.1529 31.1866 76.8277 33.1066 78.3796 34.6933C79.945 36.2933 81.8344 36.9866 84.0746 36.9866C86.3148 36.9866 88.1906 36.28 89.756 34.6933C91.3349 33.1066 92.0637 31.2 92.0637 28.9733C92.0637 26.76 91.3349 24.8533 89.756 23.2666ZM66.2205 23.2666C64.655 21.68 62.7792 20.9733 60.539 20.9733C58.2988 20.9733 56.4095 21.6666 54.8441 23.2666C53.2921 24.8533 52.6309 26.7733 52.6309 28.9733C52.6309 31.1866 53.2921 33.1066 54.8441 34.6933C56.4095 36.2933 58.2988 36.9866 60.539 36.9866C62.7792 36.9866 64.655 36.28 66.2205 34.6933C67.7994 33.1066 68.5281 31.2 68.5281 28.9733C68.5281 26.76 67.7994 24.8533 66.2205 23.2666Z" fill="#1F1B20" fill-opacity="0.501961"/>
<path fill-rule="evenodd" clip-rule="evenodd" d="M71.4571 29.6398C71.1468 32.2398 70.0132 34.5065 68.0294 36.4265C65.7082 38.6798 62.8607 39.7865 59.6084 39.7865C56.3831 39.7865 53.5221 38.6798 51.2414 36.4132C48.9607 34.1332 47.8271 31.3598 47.8271 28.1598C47.8271 24.9732 48.9742 22.1732 51.2414 19.9065C53.5491 17.6132 56.3831 16.4932 59.6489 16.4932C62.9012 16.4932 65.7217 17.6265 68.0429 19.8932C69.9997 21.8265 71.1468 24.0798 71.4571 26.6932C71.754 24.1065 72.8606 21.8132 74.7769 19.9065C77.0846 17.6132 79.9186 16.4932 83.1844 16.4932C86.4368 16.4932 89.2572 17.6265 91.5784 19.8932C93.8996 22.1732 95.0737 24.9198 95.0737 28.1598C95.0737 31.3998 93.9131 34.1465 91.5649 36.4265C89.2437 38.6798 86.3963 39.7865 83.1439 39.7865C79.9051 39.7865 77.0576 38.6798 74.7769 36.4132C72.8606 34.4932 71.754 32.2265 71.4571 29.6398ZM43.7381 20.4932H40.8906V16.9198H47.5977V39.3598H43.7381V20.4932ZM88.8659 22.4398C87.3004 20.8532 85.4246 20.1465 83.1844 20.1465C80.9442 20.1465 79.0549 20.8398 77.4895 22.4398C75.9375 24.0398 75.2628 25.9598 75.2628 28.1598C75.2628 30.3598 75.9375 32.2798 77.4895 33.8798C79.0549 35.4665 80.9442 36.1732 83.1844 36.1732C85.4246 36.1732 87.3004 35.4532 88.8659 33.8665C90.4448 32.2798 91.1736 30.3865 91.1736 28.1598C91.1736 25.9332 90.4448 24.0398 88.8659 22.4398ZM65.3303 22.4398C63.7649 20.8532 61.8891 20.1465 59.6489 20.1465C57.4087 20.1465 55.5194 20.8398 53.9539 22.4398C52.402 24.0398 51.7272 25.9598 51.7272 28.1598C51.7272 30.3598 52.402 32.2798 53.9539 33.8798C55.5194 35.4665 57.4087 36.1732 59.6489 36.1732C61.8891 36.1732 63.7649 35.4532 65.3303 33.8665C66.9093 32.2798 67.638 30.3865 67.638 28.1598C67.638 25.9332 66.9093 24.0398 65.3303 22.4398Z" fill="#373736"/>
<path d="M41.7944 17.8134V19.6001H44.6419V38.4667H46.6932V17.8134H41.7944ZM83.1841 17.3867C80.1072 17.3867 77.5161 18.4401 75.4243 20.5334C73.3326 22.6001 72.28 25.16 72.28 28.16C72.28 31.1467 73.3326 33.68 75.4243 35.7867C77.5161 37.84 80.1072 38.8934 83.1436 38.8934C86.207 38.8934 88.8115 37.84 90.9303 35.7867C93.103 33.68 94.1556 31.1467 94.1556 28.16C94.1556 25.16 93.103 22.6401 90.9303 20.5334C88.8115 18.4401 86.207 17.3867 83.1841 17.3867ZM89.5133 21.8134C91.2137 23.5334 92.0774 25.6267 92.0774 28.16C92.0774 30.68 91.2137 32.7867 89.5133 34.4934C87.8264 36.2134 85.7346 37.0667 83.1841 37.0667C80.62 37.0667 78.5282 36.2134 76.8413 34.4934C75.1814 32.7867 74.3582 30.68 74.3582 28.16C74.3582 25.6267 75.1814 23.5334 76.8413 21.8134C78.5282 20.1067 80.62 19.2534 83.1841 19.2534C85.7346 19.2534 87.8264 20.1067 89.5133 21.8134ZM59.6485 17.3867C56.5716 17.3867 53.9806 18.4401 51.8888 20.5334C49.7971 22.6001 48.7444 25.16 48.7444 28.16C48.7444 31.1467 49.7971 33.68 51.8888 35.7867C53.9806 37.84 56.5716 38.8934 59.608 38.8934C62.6714 38.8934 65.276 37.84 67.3947 35.7867C69.5674 33.68 70.6336 31.1467 70.6336 28.16C70.6336 25.16 69.5674 22.6401 67.3947 20.5334C65.276 18.4401 62.6714 17.3867 59.6485 17.3867ZM65.9777 21.8134C67.6781 23.5334 68.5418 25.6267 68.5418 28.16C68.5418 30.68 67.6781 32.7867 65.9777 34.4934C64.2908 36.2134 62.1991 37.0667 59.6485 37.0667C57.0844 37.0667 54.9927 36.2134 53.3058 34.4934C51.6594 32.7867 50.8227 30.68 50.8227 28.16C50.8227 25.6267 51.6594 23.5334 53.3058 21.8134C54.9927 20.1067 57.0844 19.2534 59.6485 19.2534C62.1991 19.2534 64.2908 20.1067 65.9777 21.8134Z" fill="#FEFEFE"/>
<path fill-rule="evenodd" clip-rule="evenodd" d="M114.912 30.2266L120.742 16.6133H122.86L131.956 37.9599V16.9199H135.789V35.7333H139.702V39.3599H128.434L126.41 34.5466H117.138L115.087 39.3599H111.012L112.901 34.9199C112.564 35.3599 112.186 35.7866 111.767 36.1999C109.338 38.5333 106.14 39.3599 102.82 39.3599H95.9375V16.9199H102.82C106.14 16.9199 109.365 17.7199 111.794 20.0533C114.075 22.2266 115.087 24.9999 115.087 28.1066C115.087 28.8266 115.033 29.5333 114.912 30.2266ZM99.7701 20.5466V35.7333H102.82C105.087 35.7333 107.354 35.2133 109.001 33.5866C110.539 32.0799 111.187 30.2266 111.187 28.1066C111.187 25.9866 110.553 24.1599 109.001 22.6533C107.341 21.0533 105.087 20.5466 102.82 20.5466H99.7701ZM124.885 30.9066L121.781 23.4399L118.65 30.9066H124.885Z" fill="#373736"/>
<path fill-rule="evenodd" clip-rule="evenodd" d="M96.8413 17.813H102.82C105.897 17.813 108.906 18.533 111.16 20.693C113.265 22.7063 114.183 25.2397 114.183 28.1063C114.183 30.9997 113.238 33.5197 111.133 35.5597C108.892 37.7197 105.897 38.4663 102.82 38.4663H96.8413V17.813ZM134.884 36.6263H138.798V38.4663H132.86V17.813H134.884V36.6263ZM127.016 33.6397H116.544L114.493 38.4663H112.374L121.335 17.5063H122.253L131.186 38.4663H129.041L127.016 33.6397ZM98.8656 19.653V36.6263H102.82C105.343 36.6263 107.813 36.0263 109.648 34.2263C111.349 32.5597 112.104 30.4663 112.104 28.1063C112.104 25.733 111.362 23.693 109.648 22.013C107.799 20.2397 105.343 19.653 102.82 19.653H98.8656ZM126.234 31.813L121.78 21.0797L117.3 31.813H126.234Z" fill="#E3A452"/>
<path fill-rule="evenodd" clip-rule="evenodd" d="M18.2185 3.79997V9.4133C18.4614 9.35997 18.7313 9.31997 18.9877 9.31997H19.9863C20.2562 9.31997 20.5126 9.35997 20.7556 9.4133V3.79997H18.2185ZM15.5869 44.9866H13.7921V46.5733H15.5869V44.9866ZM7.69226 44.9866H5.9109V46.5733H7.69226V44.9866ZM28.0969 44.9866L28.4613 46.5733H30.2561L29.8918 44.9866H28.0969ZM32.6718 27.32H16.8285V30.4533H32.6718V27.32ZM16.8285 43.24H17.3683H32.0105V42.6266V36.72V30.7333H16.8285V43.24ZM17.0714 44.7066V43.52H16.8285H16.5451C12.8204 43.52 9.09575 43.52 5.38459 43.52H5.0877H4.84478V44.7066H5.22265H16.9499H17.0714ZM17.3683 44.7066C18.3534 44.72 19.3925 44.72 20.4317 44.7066H32.2399V43.52H17.3683V44.7066ZM10.5262 5.78663H2.55061C2.11876 5.78663 1.75439 6.1333 1.75439 6.5733V19.8666C1.75439 20.3066 2.11876 20.6533 2.55061 20.6533H10.1754V22H11.7543V19.8666C11.7543 19.44 11.4034 19.0933 10.9581 19.0933H3.34682V7.34663H10.5262V5.78663ZM12.456 23.16H9.47362H12.456ZM12.456 22.88V22.28H9.47362V22.88H12.456ZM16.5451 43.24V27.1733C16.5451 24.9733 14.7232 23.16 12.483 23.16H9.44663C7.20643 23.16 5.38459 24.9733 5.38459 27.1733V43.24H16.5451ZM19.9324 16.4133H19.0417C16.2212 16.4133 13.6301 17.3733 11.5654 18.9866C11.8488 19.1866 12.0377 19.5066 12.0377 19.8666V22H12.7394V22.8933C14.9661 23.0133 16.761 24.8133 16.8285 27.0266H31.943C31.2683 21.08 26.1266 16.4133 19.9324 16.4133ZM9.87847 22V20.9333H9.59507C9.06876 21.5866 8.60993 22.3066 8.21857 23.0533C8.52896 22.96 8.85284 22.9066 9.19022 22.8933V22H9.87847ZM12.0377 5.34663H10.8096V7.78663H12.0377V5.34663ZM14.8582 4.74663H12.3211V8.38663H14.8582V4.74663ZM16.3696 5.34663H15.1551V7.78663H16.3696V5.34663ZM17.9351 5.78663H16.6665V7.34663H17.9351V5.78663ZM19.9863 9.62663H18.9877C17.2063 9.62663 15.7354 11.0666 15.7354 12.84V16.5733C16.788 16.28 17.8946 16.12 19.0417 16.12H19.9324C21.0794 16.12 22.186 16.28 23.2387 16.5866V12.84C23.2387 11.0666 21.7677 9.62663 19.9863 9.62663ZM21.1604 1.1333H17.8136V3.51997H21.1604V1.1333Z" fill="#9A5917" fill-opacity="0.8"/>
<path fill-rule="evenodd" clip-rule="evenodd" d="M27.9214 27.6533V30.4533H31.2817V27.6533H32.6717V27.32H16.8284V27.6533H27.9214ZM14.8581 4.74663H14.7367V5.34663H12.321V5.95997H14.7367V8.34663H14.8581V4.74663ZM16.2481 5.78663H15.155V6.30663H16.2481V7.78663H16.3696V5.34663H16.2481V5.78663ZM17.935 6.02663H16.6665V6.42663H17.935V6.02663ZM2.64502 7.34663V19.0933H2.99589V7.34663H2.64502ZM10.5262 6.11997H3.33327V6.46663H10.5262V6.11997ZM12.0376 5.78663H10.8096V6.30663H12.0376V5.78663ZM12.0781 22.88V22.4H12.456V22.28H9.47356V22.4H11.5653V22.88H12.0781ZM11.4034 22V20.6533H11.066V22H11.4034ZM10.1753 19.4266H3.33327V19.7733H10.1753V19.4266ZM10.958 41.24C11.147 41.24 11.3224 41.16 11.4439 41.04C11.5653 40.92 11.6463 40.7466 11.6463 40.5733C11.6463 40.3866 11.5653 40.2133 11.4439 40.0933C11.3224 39.9733 11.147 39.8933 10.958 39.8933C10.7826 39.8933 10.6072 39.9733 10.4857 40.0933C10.3642 40.2133 10.2833 40.3866 10.2833 40.5733C10.2833 40.7466 10.3642 40.92 10.4857 41.04C10.6072 41.16 10.7826 41.24 10.958 41.24ZM11.8757 41.4666C11.6463 41.6933 11.3224 41.84 10.958 41.84C10.6072 41.84 10.2833 41.6933 10.0539 41.4666C9.82444 41.24 9.67599 40.92 9.67599 40.5733C9.67599 40.2133 9.82444 39.8933 10.0539 39.6666C10.2158 39.5066 10.4317 39.3866 10.6611 39.3333V38.4533L13.4816 37.8933L7.46279 36.68C7.35483 36.6666 7.27385 36.6133 7.20638 36.5333C7.1524 36.4666 7.11191 36.3733 7.11191 36.2666C7.11191 36.1733 7.1524 36.08 7.20638 36.0133C7.27385 35.9333 7.35483 35.88 7.46279 35.8666L13.4816 34.6533L7.46279 33.4533C7.35483 33.4266 7.27385 33.3733 7.20638 33.3066C7.1524 33.24 7.11191 33.1466 7.11191 33.04C7.11191 32.9466 7.1524 32.8533 7.20638 32.7733C7.27385 32.7066 7.35483 32.6533 7.46279 32.64L13.4816 31.4266L7.46279 30.2133C7.35483 30.2 7.27385 30.1466 7.20638 30.08C7.1524 30 7.11191 29.9066 7.11191 29.8133C7.11191 29.7066 7.1524 29.6266 7.20638 29.5466C7.27385 29.48 7.35483 29.4266 7.46279 29.4L13.4816 28.2L7.46279 26.9866C7.35483 26.9733 7.27385 26.92 7.20638 26.84C7.1524 26.7733 7.11191 26.68 7.11191 26.5866C7.11191 26.48 7.1524 26.3866 7.20638 26.32C7.27385 26.24 7.35483 26.2 7.46279 26.1733L10.6611 25.5333V23.16H11.2684V26.0133L8.44793 26.5866L14.4668 27.7866C14.5747 27.8133 14.6557 27.8666 14.7097 27.9333C14.7772 28 14.8041 28.0933 14.8041 28.2C14.8041 28.2933 14.7772 28.3866 14.7097 28.4666C14.6557 28.5333 14.5747 28.5866 14.4668 28.6L8.44793 29.8133L14.4668 31.0133C14.5747 31.04 14.6557 31.0933 14.7097 31.16C14.7772 31.24 14.8041 31.3333 14.8041 31.4266C14.8041 31.52 14.7772 31.6133 14.7097 31.6933C14.6557 31.76 14.5747 31.8133 14.4668 31.84L8.44793 33.04L14.4668 34.2533C14.5747 34.2666 14.6557 34.32 14.7097 34.4C14.7772 34.4666 14.8041 34.56 14.8041 34.6533C14.8041 34.76 14.7772 34.8533 14.7097 34.92C14.6557 34.9866 14.5747 35.04 14.4668 35.0666L8.44793 36.2666L14.4668 37.48C14.5747 37.4933 14.6557 37.5466 14.7097 37.6266C14.7772 37.6933 14.8041 37.7866 14.8041 37.8933C14.8041 37.9866 14.7772 38.08 14.7097 38.1466C14.6557 38.2266 14.5747 38.28 14.4668 38.2933L11.2684 38.9333V39.3333C11.4978 39.3866 11.7138 39.5066 11.8757 39.6666C12.1051 39.8933 12.2536 40.2133 12.2536 40.5733C12.2536 40.92 12.1051 41.24 11.8757 41.4666ZM7.4358 44.9866H6.94997V46.5733H7.4358V44.9866ZM15.3305 44.9866H14.8446V46.5733H15.3305V44.9866ZM17.0713 43.52H4.84473V43.6933H14.7637V44.7066H16.0592V43.6933H17.0713V43.52ZM32.2399 43.52H17.3682V43.6933H26.2615V44.7066H29.6623V43.6933H32.2399V43.52ZM25.6407 30.7333L29.0415 30.7466V43.24H25.6407V30.7333ZM29.136 44.9866L29.5004 46.5733H29.9997L29.6353 44.9866H29.136ZM21.1604 1.1333H17.8136V1.2533H19.5814V3.51997H20.3641V1.2533H21.1604V1.1333ZM20.0538 3.79997H19.3385V9.31997H19.9863C19.9998 9.31997 20.0268 9.3333 20.0538 9.3333V3.79997ZM22.6583 16.44V12.84C22.6583 11.4933 21.6192 10.3733 20.3102 10.2133C20.8635 10.76 21.2008 11.5466 21.2008 12.4266V16.2C21.7002 16.2533 22.1725 16.3333 22.6583 16.44ZM29.0415 27.0266C28.974 22.0133 24.9525 17.52 20.1212 17.08C22.8742 17.88 25.7082 22.3733 25.6273 27.0266H29.0415Z" fill="#E3A452"/>
</g>
<defs>
<clipPath id="clip0_1_541">
<rect width="139" height="48" fill="white"/>
</clipPath>
</defs>
</svg>
