<svg width="22" height="22" viewBox="0 0 22 22" fill="none" xmlns="http://www.w3.org/2000/svg">
<path d="M11.0002 0C6.73075 0 3.25732 3.47346 3.25732 7.74293C3.25732 8.88521 3.88531 10.5819 5.23363 13.0825C6.33165 15.1189 7.71851 17.3269 8.83286 19.1011C9.47477 20.123 10.0291 21.0056 10.4048 21.6562C10.5276 21.8689 10.7546 22 11.0002 22C11.2458 22 11.4727 21.8689 11.5955 21.6562C11.9712 21.0056 12.5255 20.1231 13.1674 19.1012C14.2818 17.3271 15.6687 15.119 16.7667 13.0826C18.1151 10.5819 18.7431 8.88521 18.7431 7.74293C18.7431 3.47346 15.2696 0 11.0002 0ZM12.003 18.3699C11.6352 18.9554 11.2959 19.4957 11.0002 19.9764C10.7044 19.4957 10.365 18.9553 9.99723 18.3697C7.99068 15.1751 4.63232 9.82837 4.63232 7.74293C4.63232 4.23161 7.48893 1.375 11.0002 1.375C14.5114 1.375 17.3681 4.23161 17.3681 7.74293C17.3681 9.82833 14.0097 15.1752 12.003 18.3699ZM11.0002 4.3936C9.3096 4.3936 7.93421 5.76903 7.93421 7.45963C7.93421 9.15024 9.30964 10.5257 11.0002 10.5257C12.6908 10.5257 14.0662 9.15024 14.0662 7.45963C14.0662 5.76903 12.6908 4.3936 11.0002 4.3936ZM11.0002 9.15067C10.0678 9.15067 9.30921 8.3921 9.30921 7.45963C9.30921 6.52717 10.0678 5.7686 11.0002 5.7686C11.9326 5.7686 12.6912 6.52717 12.6912 7.45963C12.6912 8.3921 11.9326 9.15067 11.0002 9.15067Z" fill="#D0BF85"/>
</svg>
