<svg width="20" height="19" viewBox="0 0 20 19" fill="none" xmlns="http://www.w3.org/2000/svg">
<g clip-path="url(#clip0_1_453)">
<path d="M18.125 2.375H1.87501C0.841067 2.375 0 3.17401 0 4.15626V14.8438C0 15.826 0.841067 16.625 1.87501 16.625H18.125C19.1589 16.625 20 15.826 20 14.8438V4.15626C20 3.17401 19.1589 2.375 18.125 2.375ZM18.125 3.56249C18.2099 3.56249 18.2907 3.57923 18.3645 3.60846L10 10.4956L1.63542 3.60846C1.70927 3.57927 1.79005 3.56249 1.87497 3.56249H18.125ZM18.125 15.4375H1.87501C1.53017 15.4375 1.24999 15.1714 1.24999 14.8437V4.86306L9.59045 11.73C9.70826 11.8269 9.85413 11.875 10 11.875C10.1459 11.875 10.2917 11.8269 10.4096 11.73L18.75 4.86306V14.8438C18.75 15.1714 18.4698 15.4375 18.125 15.4375Z" fill="#D0BF85"/>
</g>
<defs>
<clipPath id="clip0_1_453">
<rect width="20" height="19" fill="white"/>
</clipPath>
</defs>
</svg>
