<svg width="13" height="33" viewBox="0 0 13 33" fill="none" xmlns="http://www.w3.org/2000/svg">
<path d="M10.7564 30.5066L10.7158 30.5023C9.26439 30.3493 8.31159 29.9672 8.15162 29.6853C7.69837 28.8866 7.26028 23.103 8.61603 18.6989C11.1032 17.2865 12.7613 13.52 12.7613 9.23247C12.7613 7.19746 12.3854 2.3559 11.6962 0.681944C11.597 0.360275 11.3384 0 10.917 0H2.10543C1.63037 0 1.40661 0.493496 1.34246 0.668267C0.649611 2.3295 0.271676 7.19192 0.271676 9.23247C0.271676 13.3839 1.85336 17.1119 4.22606 18.5999C5.56433 23.2488 5.2553 28.9667 4.84732 29.6853C4.68736 29.9672 3.73429 30.3493 2.28297 30.5024L2.24255 30.5066C1.46668 30.5883 0.0224609 30.7406 0.0224609 31.8925C0.0224609 32.9999 1.0201 32.9999 1.348 32.9999C1.42349 32.9999 1.50217 32.9985 1.58346 32.9971C1.66405 32.9955 1.74732 32.994 1.8325 32.994H11.1667C11.2519 32.994 11.3352 32.9956 11.4158 32.9971C11.497 32.9986 11.5757 32.9999 11.6512 32.9999C11.6512 32.9999 11.6512 32.9999 11.6513 32.9999C11.9425 32.9999 12.2471 32.9797 12.5013 32.8322C12.7182 32.7064 12.9767 32.4411 12.9767 31.8925C12.9766 30.7405 11.5323 30.5884 10.7564 30.5066ZM12.0117 32.0141C11.9793 32.0273 11.8905 32.0478 11.6511 32.0478H11.651C11.5812 32.0478 11.5085 32.0464 11.4332 32.0449C11.3469 32.0434 11.2578 32.0417 11.1665 32.0417H6.53228H1.83241C1.74117 32.0417 1.6521 32.0435 1.5658 32.0449C1.49057 32.0465 1.41786 32.0478 1.34792 32.0478C1.10866 32.0478 1.01976 32.0274 0.987295 32.0141C0.982361 31.9974 0.974657 31.9604 0.974657 31.8926C0.974657 31.5978 1.93309 31.4967 2.34236 31.4535L2.38295 31.4493C3.39912 31.3421 5.17808 31.0316 5.67539 30.1555C6.3389 28.9863 6.48346 22.8273 5.08676 18.1514C5.08676 18.1514 5.07871 18.0246 4.86749 17.8748C2.81828 16.4208 1.22387 13.1512 1.22387 9.23264C1.22387 7.2294 1.61367 2.47484 2.2248 1.02664L2.23398 1.00318C2.23969 0.987684 2.24757 0.969852 2.25605 0.95254H10.7824C10.7846 0.958599 10.7868 0.964312 10.7882 0.969246L10.8082 1.02672C11.4193 2.47492 11.809 7.22957 11.809 9.23273C11.809 13.2115 10.6033 16.8485 8.00195 17.9489C7.87193 18.004 7.80433 18.1574 7.80433 18.1574C6.3234 22.7573 6.69493 29.0481 7.32347 30.1555C7.8206 31.0317 9.59965 31.3423 10.6157 31.4495L10.6565 31.4537C11.0659 31.4968 12.0245 31.5979 12.0245 31.8926C12.0244 31.9604 12.0166 31.9974 12.0117 32.0141Z" fill="#7C7470"/>
<path d="M9.11827 15.1507C10.0619 13.5854 10.6034 11.3792 10.6034 9.09794C10.6034 8.74121 10.5924 8.32476 10.5721 7.87212C10.5721 7.87212 10.5288 7.59814 10.0837 7.59814C8.28891 7.59814 4.69922 7.59814 2.90433 7.59814C2.45913 7.59814 2.42676 7.87212 2.42676 7.87212C2.40641 8.32476 2.39551 8.74121 2.39551 9.09794C2.39551 11.3792 2.93679 13.5854 3.88059 15.1507C4.64485 16.4183 5.59887 17.1494 6.49947 17.1587C7.40008 17.1494 8.35409 16.4181 9.11827 15.1507Z" fill="#7C7470"/>
</svg>
